<svg width="395" height="33" viewBox="0 0 395 33" fill="none" xmlns="http://www.w3.org/2000/svg">
<g clip-path="url(#clip0_215_29)">
<path d="M22.9807 3.88837V19.2316C22.9807 26.1304 17.0147 30.2249 11.3952 30.2249C5.39475 30.2249 0 28.025 0 20.746V19.9514C0 19.3656 0.47766 18.8888 1.06459 18.8888H4.44567C5.0326 18.8888 5.51026 19.3656 5.51026 19.9514V20.746C5.51026 23.1733 7.44588 24.9526 11.3234 24.9526C15.5755 24.9526 17.2457 21.5779 17.2457 18.8514V3.88837C17.2457 3.44901 17.6016 3.09379 18.0418 3.09379C19.1345 3.09379 21.092 3.09379 22.1878 3.09379C22.628 3.09379 22.9839 3.44901 22.9839 3.88837H22.9807ZM132.989 24.2484C130.339 24.2484 121.866 24.2484 119.655 24.2484C119.362 24.2484 119.125 24.0115 119.125 23.7186V3.88837C119.125 3.44901 118.769 3.09379 118.329 3.09379H114.111C113.671 3.09379 113.315 3.44901 113.315 3.88837C113.315 7.79584 113.315 24.9339 113.315 28.8351C113.315 29.2745 113.671 29.6297 114.108 29.6297C117.37 29.6297 129.727 29.6297 132.992 29.6297C133.433 29.6297 133.788 29.2745 133.788 28.8351V25.0461C133.788 24.6067 133.433 24.2515 132.992 24.2515C132.552 24.2515 132.989 24.2484 132.989 24.2484ZM156.023 3.63909C157.131 7.02619 163.076 25.152 164.315 28.9379C164.427 29.2807 164.171 29.6297 163.809 29.6297C162.47 29.6297 159.663 29.6297 158.63 29.6297C158.396 29.6297 158.19 29.477 158.121 29.2527L156.641 24.3948C156.573 24.1705 156.37 24.0178 156.135 24.0178C154.209 24.0178 145.764 24.0178 143.847 24.0178C143.616 24.0178 143.413 24.1673 143.342 24.3855C143.017 25.4013 142.115 28.2431 141.79 29.2589C141.721 29.4801 141.515 29.6266 141.284 29.6266H136.18C135.818 29.6266 135.562 29.2745 135.674 28.9317L144.004 3.6422C144.11 3.31502 144.416 3.09379 144.759 3.09379C146.745 3.09379 153.285 3.09379 155.268 3.09379C155.611 3.09379 155.914 3.31191 156.02 3.63909H156.023ZM154.799 18.4775L150.538 4.76397C150.385 4.26852 149.682 4.26229 149.523 4.75773C148.434 8.18846 145.92 16.0907 145.165 18.4713C145.056 18.814 145.312 19.163 145.671 19.163H154.29C154.649 19.163 154.905 18.8172 154.799 18.4744V18.4775ZM76.257 29.6297H81.7111C82.3511 29.6297 82.7319 28.913 82.3698 28.3864L73.0539 14.7352C72.8541 14.4423 72.8728 14.0559 73.0976 13.7817L80.8244 4.39628C81.2521 3.8759 80.8806 3.09379 80.2094 3.09379H75.2424C75.0051 3.09379 74.7772 3.19973 74.6273 3.38357L64.2624 15.9785C63.944 16.3649 63.3196 16.1405 63.3196 15.6419V3.88837C63.3196 3.44901 62.9637 3.09379 62.5235 3.09379H58.3089C57.8687 3.09379 57.5128 3.44901 57.5128 3.88837V28.832C57.5128 29.2714 57.8687 29.6266 58.3089 29.6266H62.5235C62.9637 29.6266 63.3196 29.2714 63.3196 28.832V18.4058C63.3196 17.9665 63.6755 17.6113 64.1157 17.6113H67.2127C67.478 17.6113 67.7247 17.7421 67.8714 17.9603L75.5983 29.2838C75.7481 29.5019 75.9948 29.6328 76.257 29.6328V29.6297ZM108.969 3.09379H104.754C104.314 3.09379 103.958 3.44901 103.958 3.88837V24.4976C103.958 24.937 103.602 25.2922 103.162 25.2922H89.8687C89.4286 25.2922 89.0726 24.937 89.0726 24.4976V3.88837C89.0726 3.44901 88.7167 3.09379 88.2766 3.09379H84.0588C83.6186 3.09379 83.2627 3.44901 83.2627 3.88837V19.9888C83.2627 28.4051 89.4535 30.2217 96.4811 30.2217C103.509 30.2217 109.774 28.4394 109.774 19.9888V3.88837C109.774 3.44901 109.418 3.09379 108.978 3.09379H108.969ZM54.9933 16.3617C54.9933 25.3078 49.7953 30.2186 40.1141 30.2186C30.4329 30.2186 25.2348 25.3078 25.2348 16.3617C25.2348 7.41569 30.4329 2.50486 40.1141 2.50486C49.7953 2.50486 54.9933 7.41569 54.9933 16.3617ZM48.9679 8.33491C48.9679 7.88932 48.6058 7.52475 48.1562 7.52475H32.0688C31.6223 7.52475 31.2571 7.8862 31.2571 8.33491V24.3917C31.2571 24.8373 31.6192 25.2019 32.0688 25.2019H48.1562C48.6027 25.2019 48.9679 24.8404 48.9679 24.3917V8.33491Z" fill="#131313"/>
</g>
<path d="M196.02 1V31.7297" stroke="#BBC3CA" stroke-width="1.5" stroke-linecap="round" stroke-linejoin="round"/>
<path fill-rule="evenodd" clip-rule="evenodd" d="M242.196 1L243.303 2.05354C246.095 4.70913 249.86 6.33548 254.007 6.33548C254.073 6.33548 254.139 6.33507 254.205 6.33425L255.386 6.31952L255.755 7.44665C256.363 9.30475 256.691 11.2885 256.691 13.3461C256.691 22.1431 250.701 29.5307 242.597 31.6259L242.196 31.7297L241.794 31.6259C233.69 29.5307 227.7 22.1431 227.7 13.3461C227.7 11.2885 228.028 9.30475 228.637 7.44665L229.005 6.31952L230.187 6.33425C230.252 6.33507 230.318 6.33548 230.384 6.33548C234.531 6.33548 238.297 4.70913 241.088 2.05354L242.196 1ZM231.384 9.54485C231.082 10.7604 230.921 12.0335 230.921 13.3461C230.921 20.485 235.685 26.5104 242.196 28.3828C248.706 26.5104 253.47 20.485 253.47 13.3461C253.47 12.0335 253.309 10.7604 253.007 9.54485C248.922 9.32956 245.18 7.80245 242.196 5.377C239.211 7.80245 235.469 9.32956 231.384 9.54485Z" fill="#8B5CF6"/>
<path d="M281.732 11.7746C279.837 11.7746 278.367 12.4851 277.519 13.7642V6.48792H273.871V26.3839H277.519V18.7098C277.519 16.237 278.848 15.1853 280.629 15.1853C282.269 15.1853 283.428 16.1801 283.428 18.1129V26.3839H287.076V17.6581C287.076 13.8779 284.729 11.7746 281.732 11.7746ZM292.707 20.7846H303.367C303.451 20.3014 303.508 19.8182 303.508 19.2782C303.508 15.1 300.539 11.7746 296.354 11.7746C291.915 11.7746 288.89 15.0432 288.89 19.2782C288.89 23.5132 291.887 26.7818 296.637 26.7818C299.352 26.7818 301.472 25.6734 302.801 23.7406L299.861 22.0352C299.238 22.8595 298.107 23.4564 296.694 23.4564C294.771 23.4564 293.216 22.6605 292.707 20.7846V20.7846ZM292.65 17.9423C293.074 16.1233 294.403 15.0716 296.354 15.0716C297.881 15.0716 299.408 15.8959 299.861 17.9423H292.65ZM309.137 14.6169V12.1725H305.489V26.3839H309.137V19.5909C309.137 16.6065 311.54 15.7538 313.435 15.9812V11.8883C311.653 11.8883 309.872 12.6841 309.137 14.6169ZM321.207 26.7818C325.364 26.7818 328.7 23.5132 328.7 19.2782C328.7 15.0432 325.364 11.7746 321.207 11.7746C317.051 11.7746 313.743 15.0432 313.743 19.2782C313.743 23.5132 317.051 26.7818 321.207 26.7818ZM321.207 23.2006C319.059 23.2006 317.39 21.5805 317.39 19.2782C317.39 16.976 319.059 15.3559 321.207 15.3559C323.385 15.3559 325.053 16.976 325.053 19.2782C325.053 21.5805 323.385 23.2006 321.207 23.2006ZM332.511 10.4671C333.755 10.4671 334.773 9.4439 334.773 8.22171C334.773 6.99953 333.755 5.94788 332.511 5.94788C331.295 5.94788 330.277 6.99953 330.277 8.22171C330.283 8.81535 330.52 9.38295 330.938 9.80274C331.355 10.2225 331.92 10.461 332.511 10.4671V10.4671ZM330.701 26.3839H334.349V12.1725H330.701V26.3839ZM343.851 26.7818C346.622 26.7818 349.026 25.3039 350.241 23.0869L347.075 21.2678C346.509 22.4331 345.293 23.1437 343.823 23.1437C341.646 23.1437 340.034 21.5236 340.034 19.2782C340.034 17.0044 341.646 15.3843 343.823 15.3843C345.265 15.3843 346.481 16.1233 347.046 17.2886L350.185 15.4411C349.026 13.2526 346.622 11.7746 343.851 11.7746C339.553 11.7746 336.386 15.0432 336.386 19.2782C336.386 23.5132 339.553 26.7818 343.851 26.7818ZM358.113 26.7818C362.27 26.7818 365.606 23.5132 365.606 19.2782C365.606 15.0432 362.27 11.7746 358.113 11.7746C353.957 11.7746 350.648 15.0432 350.648 19.2782C350.648 23.5132 353.957 26.7818 358.113 26.7818ZM358.113 23.2006C355.964 23.2006 354.296 21.5805 354.296 19.2782C354.296 16.976 355.964 15.3559 358.113 15.3559C360.29 15.3559 361.959 16.976 361.959 19.2782C361.959 21.5805 360.29 23.2006 358.113 23.2006ZM375.467 11.7746C373.573 11.7746 372.102 12.4851 371.254 13.7642V12.1725H367.607V26.3839H371.254V18.7098C371.254 16.237 372.583 15.1853 374.364 15.1853C376.004 15.1853 377.164 16.1801 377.164 18.1129V26.3839H380.811V17.6581C380.811 13.8779 378.464 11.7746 375.467 11.7746ZM386.725 16.2085C386.725 15.4411 387.46 15.0432 388.365 15.0432C389.411 15.0432 390.203 15.5832 390.627 16.4928L393.737 14.7874C392.634 12.8262 390.655 11.7746 388.365 11.7746C385.452 11.7746 382.992 13.3947 382.992 16.2938C382.992 21.2962 390.288 20.1593 390.288 22.2342C390.288 23.0585 389.496 23.4564 388.337 23.4564C386.923 23.4564 385.961 22.7742 385.566 21.6089L382.399 23.3995C383.417 25.5881 385.509 26.7818 388.337 26.7818C391.362 26.7818 394.02 25.3039 394.02 22.2342C394.02 17.0044 386.725 18.3118 386.725 16.2085V16.2085Z" fill="#0F172A"/>
<defs>
<clipPath id="clip0_215_29">
<rect width="164.34" height="27.72" fill="white" transform="translate(0 2.50486)"/>
</clipPath>
</defs>
</svg>
